<svg xmlns="http://www.w3.org/2000/svg" xmlns:xlink="http://www.w3.org/1999/xlink" preserveAspectRatio="xMidYMid" width="17.5" height="28" viewBox="0 0 17.5 28">
  <defs>
    <style>
      .cls-1 {
        fill: #292a33;
        opacity: 0.5;
        fill-rule: evenodd;
      }
    </style>
  </defs>
  <path d="M8.750,28.000 C3.917,28.000 -0.000,24.063 -0.000,19.198 L-0.000,8.801 C-0.000,3.940 3.916,-0.001 8.750,-0.001 C13.583,-0.001 17.500,3.937 17.500,8.801 L17.500,19.198 C17.500,24.060 13.584,28.000 8.750,28.000 ZM15.909,8.801 C15.909,4.822 12.705,1.599 8.750,1.599 C4.795,1.599 1.591,4.823 1.591,8.801 L1.591,19.198 C1.591,23.178 4.795,26.400 8.750,26.400 C12.705,26.400 15.909,23.176 15.909,19.198 L15.909,8.801 ZM8.750,10.400 C8.311,10.400 7.954,10.039 7.954,9.596 L7.954,6.403 C7.954,5.959 8.308,5.599 8.750,5.599 C9.189,5.599 9.545,5.960 9.545,6.403 L9.545,9.596 C9.545,10.040 9.192,10.400 8.750,10.400 Z" class="cls-1"/>
</svg>
