<svg xmlns="http://www.w3.org/2000/svg" xmlns:xlink="http://www.w3.org/1999/xlink" preserveAspectRatio="xMidYMid" width="19" height="12" viewBox="0 0 19 12">
  <defs>
    <style>
      .cls-1 {
        fill: #fff;
        fill-rule: evenodd;
      }
    </style>
  </defs>
  <path d="M19.000,5.999 C18.990,5.781 18.907,5.537 18.792,5.397 L14.676,0.347 C14.324,-0.068 13.721,-0.102 13.334,0.213 C12.948,0.529 12.885,1.165 13.201,1.550 L16.051,5.052 L0.950,5.052 C0.425,5.052 -0.000,5.476 -0.000,5.999 C-0.000,6.522 0.425,6.946 0.950,6.946 L16.051,6.946 L13.201,10.448 C12.885,10.833 12.955,11.462 13.334,11.785 C13.728,12.119 14.359,12.043 14.676,11.652 L18.792,6.601 C18.953,6.405 18.987,6.238 19.000,5.999 Z" class="cls-1"/>
</svg>
